<svg width="54" height="55" viewBox="0 0 54 55" fill="none" xmlns="http://www.w3.org/2000/svg">
<path d="M5.91106 -7.25977e-06L14.3671 -7.99902e-06C17.6511 -8.28611e-06 20.2782 2.70195 20.2782 5.98587L20.2782 27.9341C20.2782 31.2596 22.9464 33.92 26.1893 33.92L47.8631 33.92C51.147 33.92 53.7742 36.6219 53.7742 39.9058L53.7742 48.469C53.7742 51.7944 51.106 54.4548 47.8631 54.4548L5.91107 54.4548C2.62715 54.4548 1.12079e-05 51.7529 1.09208e-05 48.469L7.20317e-06 5.9443C6.91608e-06 2.66039 2.66819 -6.97627e-06 5.91106 -7.25977e-06Z" fill="#23214B"/>
</svg>
