<?xml version="1.0" encoding="utf-8"?>
<!-- Generator: Adobe Illustrator 16.0.0, SVG Export Plug-In . SVG Version: 6.00 Build 0)  -->
<!DOCTYPE svg PUBLIC "-//W3C//DTD SVG 1.1//EN" "http://www.w3.org/Graphics/SVG/1.1/DTD/svg11.dtd">
<svg version="1.1" id="Layer_1" xmlns="http://www.w3.org/2000/svg" xmlns:xlink="http://www.w3.org/1999/xlink" x="0px" y="0px"
	 width="860px" height="200px" viewBox="0 0 860 200" style="enable-background:new 0 0 860 200;" xml:space="preserve">
<path style="fill:#FFFFFF;" d="M345.11,62.81c-24.65,0-43.96,19.74-43.96,44.94c0,12.21,4.63,23.52,13.04,31.84
	c8.43,8.34,19.93,12.93,32.38,12.93c13.2,0,25.04-5.15,34.23-14.91c1.28-1.36,1.32-3.46,0.1-4.87l-7.29-8.42
	c-0.66-0.76-1.61-1.22-2.62-1.25c-1.01-0.04-1.99,0.35-2.7,1.06c-6.48,6.47-13.53,9.62-21.56,9.62c-12.58,0-21.91-7.19-24.69-18.64
	h58.05c1.7,0,3.18-1.18,3.55-2.85c0.18-0.79,1.06-5.02,1.06-10.18c0-11.06-4.08-21.12-11.49-28.32
	C365.94,66.7,355.96,62.81,345.11,62.81 M344.78,81.42c8.81,0,17.75,4.8,19.53,15.4h-41.29C326.55,87.33,334.7,81.42,344.78,81.42"
	/>
<path style="fill:#FFFFFF;" d="M430.78,62.81c-7.72,0-14.82,2.07-20.66,5.94v-0.52c0-2.01-1.63-3.64-3.64-3.64h-11.66
	c-2.01,0-3.64,1.63-3.64,3.64v78.87c0,2.01,1.63,3.64,3.64,3.64h12.47c2.01,0,3.64-1.63,3.64-3.64V99c0-10.25,7.03-17.42,17.1-17.42
	c9.85,0,15.96,6.67,15.96,17.42v48.1c0,2.01,1.63,3.64,3.64,3.64h12.47c2.01,0,3.64-1.63,3.64-3.64V97.54
	C463.73,76.45,450.8,62.81,430.78,62.81"/>
<path style="fill:#FFFFFF;" d="M518.01,79.4V68.23c0-2.01-1.63-3.64-3.64-3.64h-16.12V50.25c0-8.33,3.49-11.43,12.88-11.43
	c1.92,0,4.05,0.15,6.51,0.46c1.03,0.13,2.08-0.19,2.86-0.88c0.78-0.69,1.23-1.68,1.23-2.73V25.15c0-1.63-1.09-3.07-2.66-3.5
	c-3.51-0.97-6.96-1.43-10.85-1.43c-18.88,0-29.71,10.65-29.71,29.23v15.15h-7.7c-2.01,0-3.64,1.63-3.64,3.64V79.4
	c0,2.01,1.63,3.64,3.64,3.64h7.7v64.06c0,2.01,1.63,3.63,3.64,3.63h12.47c2.01,0,3.64-1.63,3.64-3.63V83.04h16.12
	C516.38,83.04,518.01,81.41,518.01,79.4"/>
<path style="fill:#FFFFFF;" d="M560.41,62.81c-25.2,0-44.94,19.67-44.94,44.77c0,24.93,19.66,44.6,44.77,44.77
	c12.11,0,23.44-4.62,31.91-13c8.5-8.41,13.19-19.7,13.19-31.78c0-12.13-4.68-23.44-13.17-31.84
	C583.74,67.4,572.46,62.81,560.41,62.81 M560.41,81.58c14.18,0,24.87,11.25,24.87,26.17c0,14.73-10.76,25.84-25.03,25.84
	c-14.09,0-24.71-11.11-24.71-25.84v-0.04c-0.07-7.42,2.53-14.18,7.33-19.03C547.41,84.11,553.64,81.58,560.41,81.58"/>
<path style="fill:#FFFFFF;" d="M661.05,79.24V68.23c0-1.73-1.22-3.23-2.92-3.57c-1.68-0.34-3.59-0.72-6.54-0.72
	c-7.65,0-14.98,2.45-20.82,6.78v-2.5c0-2.01-1.63-3.64-3.64-3.64h-11.66c-2.01,0-3.64,1.63-3.64,3.64v78.87
	c0,2.01,1.63,3.64,3.64,3.64h12.47c2.01,0,3.64-1.63,3.64-3.64v-44.7c0-13.42,10.96-19.53,21.14-19.53h4.7
	C659.43,82.88,661.05,81.25,661.05,79.24"/>
<path style="fill:#FFFFFF;" d="M742.88,64.59h-11.82c-2.01,0-3.64,1.63-3.64,3.64v3.39c-6.93-5.62-16.22-8.81-26.33-8.81
	c-24.14,0-42.35,18.76-42.35,43.64c0,12.06,4.29,23.1,12.07,31.08c7.79,7.99,18.54,12.4,30.28,12.4c9.69,0,18.75-2.93,25.64-8.09
	c-0.72,17.36-12.57,21.06-22.57,21.06c-12.14,0-20.19-5.56-27.09-11.57c-0.74-0.64-1.7-0.96-2.68-0.88
	c-0.98,0.08-1.88,0.54-2.51,1.3l-7.29,8.75c-1.2,1.45-1.11,3.57,0.22,4.9c10.35,10.35,24.81,16.29,39.66,16.29
	c25.53,0,42.02-16.56,42.02-42.18V68.23C746.52,66.22,744.89,64.59,742.88,64.59 M703.04,131.16c-14.36,0-24.38-10.09-24.38-24.54
	c0-14.55,10.03-24.71,24.38-24.71c17.64,0,23.9,13.22,23.9,24.54C726.94,117.85,720.68,131.16,703.04,131.16"/>
<path style="fill:#FFFFFF;" d="M825.82,73.76c-7.26-7.06-17.25-10.95-28.1-10.95c-24.65,0-43.96,19.74-43.96,44.94
	c0,12.21,4.63,23.52,13.04,31.84c8.43,8.34,19.93,12.93,32.38,12.93c13.2,0,25.04-5.15,34.23-14.91c1.28-1.36,1.32-3.46,0.1-4.87
	l-7.29-8.42c-0.66-0.76-1.61-1.22-2.62-1.25c-1.01-0.04-1.99,0.35-2.7,1.06c-6.48,6.47-13.53,9.62-21.56,9.62
	c-12.58,0-21.91-7.19-24.69-18.64h58.05c1.71,0,3.18-1.18,3.55-2.85c0.18-0.79,1.06-5.02,1.06-10.18
	C837.31,91.02,833.22,80.96,825.82,73.76 M797.39,81.42c8.81,0,17.75,4.8,19.53,15.4h-41.29C779.15,87.33,787.31,81.42,797.39,81.42
	"/>
<g>
	<defs>
		<path id="SVGID_1_" d="M213.51,35.46c0,8.01,6.49,14.5,14.5,14.5c8.01,0,14.5-6.49,14.5-14.5c0-8.01-6.5-14.5-14.5-14.5
			C220.01,20.96,213.51,27.45,213.51,35.46"/>
	</defs>
	<clipPath id="SVGID_2_">
		<use xlink:href="#SVGID_1_"  style="overflow:visible;"/>
	</clipPath>
	
		<linearGradient id="SVGID_3_" gradientUnits="userSpaceOnUse" x1="-163.9946" y1="521.0039" x2="-162.9946" y2="521.0039" gradientTransform="matrix(-183.9876 0 0 183.9876 -29945.5 -95822.875)">
		<stop  offset="0" style="stop-color:#F7BF28"/>
		<stop  offset="0.5222" style="stop-color:#00B26F"/>
		<stop  offset="0.8662" style="stop-color:#324598"/>
		<stop  offset="1" style="stop-color:#324598"/>
	</linearGradient>
	<rect x="213.51" y="20.96" style="clip-path:url(#SVGID_2_);fill:url(#SVGID_3_);" width="29.01" height="29.01"/>
</g>
<g>
	<defs>
		<path id="SVGID_4_" d="M38.39,20.83c-8.08,0-14.63,6.55-14.63,14.63c0,8.08,6.55,14.63,14.63,14.63h72.86
			c8.08,0,14.63-6.55,14.63-14.63c0-8.08-6.55-14.63-14.63-14.63H38.39z"/>
	</defs>
	<clipPath id="SVGID_5_">
		<use xlink:href="#SVGID_4_"  style="overflow:visible;"/>
	</clipPath>
	
		<linearGradient id="SVGID_6_" gradientUnits="userSpaceOnUse" x1="-163.9937" y1="521.0039" x2="-162.9945" y2="521.0039" gradientTransform="matrix(-183.9876 0 0 183.9876 -29945.5 -95822.875)">
		<stop  offset="0" style="stop-color:#F7BF28"/>
		<stop  offset="0.5222" style="stop-color:#00B26F"/>
		<stop  offset="0.8662" style="stop-color:#324598"/>
		<stop  offset="1" style="stop-color:#324598"/>
	</linearGradient>
	<rect x="23.76" y="20.83" style="clip-path:url(#SVGID_5_);fill:url(#SVGID_6_);" width="102.13" height="29.27"/>
</g>
<g>
	<defs>
		<path id="SVGID_7_" d="M155.03,20.83c-8.08,0-14.63,6.55-14.63,14.63c0,8.08,6.55,14.63,14.63,14.63h29.35
			c8.08,0,14.63-6.55,14.63-14.63c0-8.08-6.55-14.63-14.63-14.63H155.03z"/>
	</defs>
	<clipPath id="SVGID_8_">
		<use xlink:href="#SVGID_7_"  style="overflow:visible;"/>
	</clipPath>
	
		<linearGradient id="SVGID_9_" gradientUnits="userSpaceOnUse" x1="-163.9946" y1="521.0039" x2="-162.9946" y2="521.0039" gradientTransform="matrix(-183.9876 0 0 183.9876 -29945.5 -95822.875)">
		<stop  offset="0" style="stop-color:#F7BF28"/>
		<stop  offset="0.5222" style="stop-color:#00B26F"/>
		<stop  offset="0.8662" style="stop-color:#324598"/>
		<stop  offset="1" style="stop-color:#324598"/>
	</linearGradient>
	<rect x="140.39" y="20.83" style="clip-path:url(#SVGID_8_);fill:url(#SVGID_9_);" width="58.62" height="29.27"/>
</g>
<g>
	<defs>
		<path id="SVGID_10_" d="M155.03,71.12c-8.08,0-14.63,6.55-14.63,14.63s6.55,14.63,14.63,14.63h29.35
			c8.08,0,14.63-6.55,14.63-14.63s-6.55-14.63-14.63-14.63H155.03z"/>
	</defs>
	<clipPath id="SVGID_11_">
		<use xlink:href="#SVGID_10_"  style="overflow:visible;"/>
	</clipPath>
	
		<linearGradient id="SVGID_12_" gradientUnits="userSpaceOnUse" x1="-163.9946" y1="521.0039" x2="-162.9946" y2="521.0039" gradientTransform="matrix(-183.9876 0 0 183.9876 -29945.5 -95772.625)">
		<stop  offset="0" style="stop-color:#F7BF28"/>
		<stop  offset="0.5222" style="stop-color:#00B26F"/>
		<stop  offset="0.8662" style="stop-color:#324598"/>
		<stop  offset="1" style="stop-color:#324598"/>
	</linearGradient>
	<rect x="140.39" y="71.12" style="clip-path:url(#SVGID_11_);fill:url(#SVGID_12_);" width="58.62" height="29.27"/>
</g>
<g>
	<defs>
		<path id="SVGID_13_" d="M38.39,71.18c-8.08,0-14.63,6.55-14.63,14.63c0,8.08,6.55,14.63,14.63,14.63h72.86
			c8.08,0,14.63-6.55,14.63-14.63c0-8.08-6.55-14.63-14.63-14.63H38.39z"/>
	</defs>
	<clipPath id="SVGID_14_">
		<use xlink:href="#SVGID_13_"  style="overflow:visible;"/>
	</clipPath>
	
		<linearGradient id="SVGID_15_" gradientUnits="userSpaceOnUse" x1="-163.9937" y1="521.0039" x2="-162.9945" y2="521.0039" gradientTransform="matrix(-183.9876 0 0 183.9876 -29945.5 -95772.625)">
		<stop  offset="0" style="stop-color:#F7BF28"/>
		<stop  offset="0.5222" style="stop-color:#00B26F"/>
		<stop  offset="0.8662" style="stop-color:#324598"/>
		<stop  offset="1" style="stop-color:#324598"/>
	</linearGradient>
	<rect x="23.76" y="71.18" style="clip-path:url(#SVGID_14_);fill:url(#SVGID_15_);" width="102.13" height="29.27"/>
</g>
<g>
	<defs>
		<path id="SVGID_16_" d="M140.66,136.11c0,8.01,6.49,14.5,14.5,14.5c8.01,0,14.5-6.49,14.5-14.5c0-8.01-6.49-14.5-14.5-14.5
			C147.16,121.61,140.66,128.1,140.66,136.11"/>
	</defs>
	<clipPath id="SVGID_17_">
		<use xlink:href="#SVGID_16_"  style="overflow:visible;"/>
	</clipPath>
	
		<linearGradient id="SVGID_18_" gradientUnits="userSpaceOnUse" x1="-163.9946" y1="521.0039" x2="-162.9946" y2="521.0039" gradientTransform="matrix(-183.9876 0 0 183.9876 -29945.5 -95722.25)">
		<stop  offset="0" style="stop-color:#F7BF28"/>
		<stop  offset="0.5222" style="stop-color:#00B26F"/>
		<stop  offset="0.8662" style="stop-color:#324598"/>
		<stop  offset="1" style="stop-color:#324598"/>
	</linearGradient>
	<rect x="140.66" y="121.61" style="clip-path:url(#SVGID_17_);fill:url(#SVGID_18_);" width="29.01" height="29.01"/>
</g>
<g>
	<defs>
		<path id="SVGID_19_" d="M38.39,121.48c-8.08,0-14.63,6.55-14.63,14.63s6.55,14.63,14.63,14.63h72.86
			c8.08,0,14.63-6.55,14.63-14.63s-6.55-14.63-14.63-14.63H38.39z"/>
	</defs>
	<clipPath id="SVGID_20_">
		<use xlink:href="#SVGID_19_"  style="overflow:visible;"/>
	</clipPath>
	
		<linearGradient id="SVGID_21_" gradientUnits="userSpaceOnUse" x1="-163.9937" y1="521.0039" x2="-162.9945" y2="521.0039" gradientTransform="matrix(-183.9876 0 0 183.9876 -29945.5 -95722.25)">
		<stop  offset="0" style="stop-color:#F7BF28"/>
		<stop  offset="0.5222" style="stop-color:#00B26F"/>
		<stop  offset="0.8662" style="stop-color:#324598"/>
		<stop  offset="1" style="stop-color:#324598"/>
	</linearGradient>
	<rect x="23.76" y="121.48" style="clip-path:url(#SVGID_20_);fill:url(#SVGID_21_);" width="102.13" height="29.27"/>
</g>
</svg>
