<svg width="495" height="108" viewBox="0 0 495 108" fill="none" xmlns="http://www.w3.org/2000/svg">
<path d="M5.91583 0H72.7565C76.043 0 78.6723 2.71357 78.6723 6.0116V14.6115C78.6723 17.9513 76.002 20.6231 72.7565 20.6231H26.2104C22.9238 20.6231 20.2946 23.3367 20.2946 26.6347V81.3653C20.2946 84.7051 22.9649 87.3769 26.2104 87.3769H80.0691C83.3557 87.3769 85.9849 84.6633 85.9849 81.3653V57.4441C85.9849 54.1044 88.6553 51.4325 91.9008 51.4325H100.364C103.65 51.4325 106.28 54.1461 106.28 57.4441V101.988C106.28 105.328 103.609 108 100.364 108H5.91583C2.62926 108 0 105.286 0 101.988V6.0116C0 2.67182 2.62926 0 5.91583 0Z" fill="#241F4B"/>
<path d="M74.1535 81.7826H65.6906C62.404 81.7826 59.7747 79.069 59.7747 75.771V53.7285C59.7747 50.3887 57.1044 47.7169 53.8589 47.7169H32.1675C28.881 47.7169 26.2517 45.0033 26.2517 41.7053V33.1053C26.2517 29.7656 28.922 27.0938 32.1675 27.0938H74.1535C77.4401 27.0938 80.0693 29.8073 80.0693 33.1053V75.8127C80.0693 79.1108 77.399 81.7826 74.1535 81.7826Z" fill="#00A6B7"/>
<path d="M187.268 47.0696H146.578C148.5 54.9145 154.588 59.0075 162.117 59.0075C168.365 59.0075 172.69 55.4261 174.292 53.2091L185.345 60.0307C180.86 66.5113 172.53 71.9686 162.117 71.9686C144.015 71.9686 132 59.0075 132 41.2712C132 23.0233 144.816 10.5737 160.034 10.5737C176.534 10.7443 189.671 24.0465 187.268 47.0696ZM173.811 35.8139C172.369 28.1395 167.564 23.876 160.194 23.876C153.466 23.876 148.18 28.31 146.578 35.8139H173.811Z" fill="#23214B"/>
<path d="M239.171 52.5269C239.171 63.9532 231.321 71.9686 215.943 71.9686C205.53 71.9686 194.797 67.5346 192.394 57.6432L205.53 53.2091C206.01 55.5967 208.093 59.5191 216.103 59.5191C221.87 59.5191 225.074 57.3021 225.074 53.3796C225.074 47.9223 217.224 48.0929 210.656 46.558C200.083 44.3409 194.637 38.8836 194.637 28.8217C194.637 17.7365 203.287 10.5737 216.103 10.5737C225.554 10.5737 234.846 15.5194 237.088 25.5814L224.593 28.8217C223.952 25.7519 221.229 22.8527 216.103 22.8527C212.098 22.8527 207.933 24.3876 207.933 28.8217C207.933 33.9379 215.302 34.279 219.627 35.3022C233.244 38.7131 239.171 42.6355 239.171 52.5269Z" fill="#23214B"/>
<path d="M264.642 25.5812V46.8989C264.642 53.55 265.443 57.4725 273.133 57.4725C274.094 57.4725 275.375 57.3019 276.337 57.3019V70.6042C274.895 71.1158 273.453 71.4569 270.57 71.4569C256.472 71.4569 250.865 61.3949 250.865 49.2865V25.5812H243.016V12.279H250.865V0H264.642V12.279H276.337V25.5812H264.642Z" fill="#23214B"/>
<path d="M338.653 47.0696H297.963C299.885 54.9145 305.973 59.0075 313.502 59.0075C319.75 59.0075 324.075 55.4261 325.677 53.2091L336.731 60.0307C332.245 66.5113 323.915 71.9686 313.502 71.9686C295.4 71.9686 283.385 59.0075 283.385 41.2712C283.385 23.0233 296.201 10.5737 311.42 10.5737C328.08 10.7443 341.216 24.0465 338.653 47.0696ZM325.357 35.8139C323.915 28.1395 319.109 23.876 311.74 23.876C305.012 23.876 299.725 28.31 298.123 35.8139H325.357Z" fill="#23214B"/>
<path d="M400.809 47.0696H360.119C362.041 54.9145 368.129 59.0075 375.658 59.0075C381.906 59.0075 386.231 55.4261 387.833 53.2091L398.886 60.0307C394.401 66.5113 386.071 71.9686 375.658 71.9686C357.556 71.9686 345.541 59.0075 345.541 41.2712C345.541 23.0233 358.357 10.5737 373.575 10.5737C390.076 10.7443 403.212 24.0465 400.809 47.0696ZM387.352 35.8139C385.91 28.1395 381.105 23.876 373.736 23.876C367.007 23.876 361.721 28.31 360.119 35.8139H387.352Z" fill="#23214B"/>
<path d="M489.878 34.1081V70.6039H476.101V37.1778C476.101 29.8445 473.217 25.0694 466.97 25.0694C460.562 25.0694 457.198 30.5267 457.198 37.1778V70.6039H443.421V37.1778C443.421 29.8445 440.537 25.0694 434.29 25.0694C427.882 25.0694 424.518 30.5267 424.518 37.1778V70.6039H410.741V12.2788H424.518V18.4183C427.401 14.1547 431.726 10.7439 438.935 10.7439C446.464 10.7439 451.27 14.4958 453.994 19.9531C457.358 14.8369 462.804 10.7439 470.494 10.7439C483.31 10.7439 489.878 21.6585 489.878 34.1081Z" fill="#23214B"/>
<path d="M136.482 85.8297V86.0002H140.166V87.7056H136.482V101.861H134.88V87.7056H132.156V86.0002H134.88V85.8297C134.88 81.7367 136.802 79.6902 140.166 79.6902V81.3956C137.763 81.3956 136.482 82.5894 136.482 85.8297Z" fill="#23214B"/>
<path d="M143.049 81.5665C143.049 81.0548 143.53 80.5432 144.011 80.5432C144.651 80.5432 144.972 81.0548 144.972 81.5665C144.972 82.2486 144.491 82.7602 144.011 82.7602C143.53 82.7602 143.049 82.2486 143.049 81.5665ZM143.37 86.0005H144.972V101.861H143.37V86.0005Z" fill="#23214B"/>
<path d="M161.793 92.4808V101.861H160.191V92.4808C160.191 90.2638 159.23 87.194 155.865 87.194C152.501 87.194 150.899 90.2638 150.899 92.4808V101.861H149.297V86.0002H150.899V88.5584C151.86 86.8529 153.462 85.6592 155.865 85.6592C160.03 85.6592 161.793 89.4111 161.793 92.4808Z" fill="#23214B"/>
<path d="M177.011 101.861H175.409V99.4731C174.448 100.837 172.846 102.372 170.283 102.372C167.399 102.372 165.157 100.326 165.157 97.5971C165.157 92.6514 170.764 92.6514 175.089 92.6514C175.249 92.6514 175.409 92.6514 175.569 92.6514V91.6281C175.569 89.4111 174.608 87.3646 171.725 87.3646C169.802 87.3646 168.521 88.2173 167.56 89.07L166.278 88.0468C167.399 87.0235 169.162 85.6592 171.725 85.6592C175.089 85.6592 177.171 87.8762 177.171 91.6281V101.861H177.011ZM175.409 97.0854V94.3568C175.249 94.3568 175.089 94.3568 174.929 94.3568C171.565 94.3568 166.759 94.0157 166.759 97.5971C166.759 99.6436 168.521 100.667 170.283 100.667C173.647 100.667 175.089 98.4498 175.409 97.0854Z" fill="#23214B"/>
<path d="M193.832 92.4808V101.861H192.23V92.4808C192.23 90.2638 191.269 87.194 187.904 87.194C184.54 87.194 182.938 90.2638 182.938 92.4808V101.861H181.336V86.0002H182.938V88.5584C183.9 86.8529 185.502 85.6592 187.904 85.6592C192.07 85.6592 193.832 89.4111 193.832 92.4808Z" fill="#23214B"/>
<path d="M210.012 97.7676L211.453 98.6203C210.012 100.837 207.769 102.372 205.046 102.372C200.72 102.372 197.356 98.6203 197.356 94.0157C197.356 89.4111 200.72 85.6592 205.046 85.6592C207.769 85.6592 210.172 87.194 211.453 89.4111L210.012 90.2638C208.89 88.5584 207.128 87.3646 205.046 87.3646C201.681 87.3646 198.958 90.4343 198.958 94.0157C198.958 97.5971 201.681 100.667 205.046 100.667C206.968 100.667 208.89 99.4731 210.012 97.7676Z" fill="#23214B"/>
<path d="M227.793 94.8684H214.977C215.298 98.1087 217.861 100.667 221.065 100.667C222.987 100.667 224.589 99.8141 225.871 98.4498L227.152 99.3025C225.71 101.349 223.468 102.372 221.065 102.372C216.739 102.372 213.375 98.6203 213.375 94.0157C213.375 89.5816 216.419 85.6592 220.744 85.6592C224.909 85.6592 228.113 89.4111 227.793 94.8684ZM214.977 93.163H226.191C225.871 89.7522 223.628 87.3646 220.744 87.3646C217.54 87.3646 215.298 89.9227 214.977 93.163Z" fill="#23214B"/>
<path d="M257.59 101.861H255.187C254.226 101.008 253.105 99.9846 251.823 98.7908C250.381 100.667 248.299 102.202 245.095 102.202C241.25 102.202 238.207 99.6436 238.207 96.0622C238.207 93.163 239.809 90.7754 243.012 89.411C242.211 88.0467 241.41 86.5119 241.41 84.977C241.41 81.9072 243.653 79.6902 246.377 79.6902C249.42 79.6902 251.022 81.9072 251.022 84.1243C251.022 87.5351 248.299 89.0699 245.415 90.2637C246.056 91.1164 247.017 91.9692 247.978 92.9924C249.1 94.1862 250.381 95.38 251.503 96.4032C252.304 95.0389 252.624 93.504 252.784 92.4808L254.386 92.6514C254.226 94.0157 253.746 95.8916 252.784 97.597C254.707 99.3025 256.469 101.008 257.59 101.861ZM250.702 97.7676C249.42 96.5738 248.139 95.38 247.017 94.1862C245.896 92.9924 244.935 91.9692 244.134 90.9459C242.051 91.7986 239.969 93.3335 239.969 96.2327C239.969 98.7908 242.211 100.667 245.255 100.667C247.979 100.667 249.42 99.3025 250.702 97.7676ZM243.173 84.977C243.173 86.3413 243.813 87.7056 244.614 88.8994C247.658 87.5351 249.58 86.5119 249.58 84.1243C249.58 82.7599 248.459 81.3956 246.537 81.3956C244.614 81.3956 243.173 82.7599 243.173 84.977Z" fill="#23214B"/>
<path d="M282.901 94.0155C282.901 98.6202 279.857 102.372 275.532 102.372C272.969 102.372 270.886 101.008 269.765 98.9612V108H268.163V86.1706H269.765V89.2404C271.047 87.1939 272.969 85.8296 275.532 85.8296C279.857 85.659 282.901 89.4109 282.901 94.0155ZM281.459 94.0155C281.459 90.4342 279.056 87.3644 275.532 87.3644C272.008 87.3644 269.765 90.4342 269.765 94.0155C269.765 97.5969 272.168 100.667 275.532 100.667C278.896 100.667 281.459 97.5969 281.459 94.0155Z" fill="#23214B"/>
<path d="M293.154 85.6592V87.5351C289.95 87.5351 287.867 89.7521 287.867 93.6746V101.69H286.265V85.8297H287.867V89.2406C288.988 87.3646 290.751 85.6592 293.154 85.6592Z" fill="#23214B"/>
<path d="M310.614 94.0157C310.614 98.6203 307.25 102.372 302.925 102.372C298.6 102.372 295.236 98.6203 295.236 94.0157C295.236 89.4111 298.6 85.6592 302.925 85.6592C307.25 85.6592 310.614 89.4111 310.614 94.0157ZM309.012 94.0157C309.012 90.4343 306.289 87.3646 302.925 87.3646C299.561 87.3646 296.838 90.4343 296.838 94.0157C296.838 97.5971 299.561 100.667 302.925 100.667C306.289 100.667 309.012 97.5971 309.012 94.0157Z" fill="#23214B"/>
<path d="M329.038 94.0155C329.038 98.6202 325.994 102.372 321.669 102.372C319.105 102.372 317.023 101.008 315.902 98.9612V108H314.3V86.1706H315.902V89.2404C317.183 87.1939 319.105 85.8296 321.669 85.8296C325.834 85.659 329.038 89.4109 329.038 94.0155ZM327.436 94.0155C327.436 90.4342 325.033 87.3644 321.508 87.3644C318.144 87.3644 315.741 90.4342 315.741 94.0155C315.741 97.5969 318.144 100.667 321.508 100.667C325.033 100.667 327.436 97.5969 327.436 94.0155Z" fill="#23214B"/>
<path d="M345.697 94.8684H332.882C333.202 98.1087 335.765 100.667 338.969 100.667C340.892 100.667 342.494 99.8141 343.775 98.4498L345.057 99.3025C343.615 101.349 341.532 102.372 338.969 102.372C334.644 102.372 331.28 98.6203 331.28 94.0157C331.28 89.5816 334.324 85.6592 338.649 85.6592C342.814 85.6592 346.018 89.4111 345.697 94.8684ZM332.882 93.163H344.095C343.775 89.7522 341.532 87.3646 338.649 87.3646C335.445 87.3646 333.202 89.9227 332.882 93.163Z" fill="#23214B"/>
<path d="M355.95 85.6592V87.5351C352.746 87.5351 350.663 89.7521 350.663 93.6746V101.69H349.061V85.8297H350.663V89.2406C351.624 87.3646 353.547 85.6592 355.95 85.6592Z" fill="#23214B"/>
<path d="M365.402 100.326V102.031C362.999 102.202 360.276 102.031 360.276 97.2561V87.8764H357.712V86.1709H360.276V82.9307H361.878V86.1709H365.402V87.8764H361.878V97.2561C361.878 99.4732 362.518 100.667 365.402 100.326Z" fill="#23214B"/>
<path d="M381.101 86.0005L372.771 107.83H371.169L373.892 100.838L367.645 86.0005H369.246L374.533 98.7911L379.499 86.0005H381.101Z" fill="#23214B"/>
<path d="M401.446 97.5972C401.446 99.9848 399.844 102.372 396.32 102.372C393.436 102.372 391.514 100.667 391.033 98.7909L392.475 98.2793C392.795 99.4731 394.237 100.667 396.32 100.667C398.562 100.667 400.004 99.4731 400.004 97.5972C400.004 95.8918 398.883 95.3801 396.48 94.8685C394.237 94.3569 391.514 93.5042 391.514 90.4344C391.514 87.8763 393.436 85.8298 396.159 85.8298C398.402 85.8298 400.164 87.1941 400.805 89.4112L399.203 89.9228C398.723 88.3879 397.601 87.5352 396.159 87.5352C394.397 87.5352 393.116 88.729 393.116 90.4344C393.116 92.1398 394.558 92.822 396.8 93.3336C398.723 93.6747 401.446 94.3569 401.446 97.5972Z" fill="#23214B"/>
<path d="M418.106 94.8684H405.291C405.611 98.1087 408.174 100.667 411.378 100.667C413.3 100.667 414.902 99.8141 416.184 98.4498L417.466 99.3025C416.024 101.349 413.941 102.372 411.378 102.372C407.053 102.372 403.689 98.6203 403.689 94.0157C403.689 89.5816 406.732 85.6592 411.058 85.6592C415.223 85.6592 418.427 89.4111 418.106 94.8684ZM405.291 93.163H416.504C416.184 89.7522 413.941 87.3646 411.058 87.3646C408.014 87.3646 405.611 89.9227 405.291 93.163Z" fill="#23214B"/>
<path d="M428.359 85.6592V87.5351C425.155 87.5351 423.072 89.7521 423.072 93.6746V101.69H421.47V85.8297H423.072V89.2406C424.194 87.3646 425.956 85.6592 428.359 85.6592Z" fill="#23214B"/>
<path d="M443.897 86.0005L437.65 101.861H436.048L429.8 86.0005H431.402L436.688 99.6438L441.975 86.0005H443.897Z" fill="#23214B"/>
<path d="M446.461 81.5665C446.461 81.0548 446.942 80.5432 447.423 80.5432C447.903 80.5432 448.384 81.0548 448.384 81.5665C448.384 82.2486 447.903 82.7602 447.423 82.7602C446.942 82.7602 446.461 82.2486 446.461 81.5665ZM446.622 86.0005H448.224V101.861H446.622V86.0005Z" fill="#23214B"/>
<path d="M464.403 97.7676L465.845 98.6203C464.403 100.837 462.16 102.372 459.437 102.372C455.112 102.372 451.748 98.6203 451.748 94.0157C451.748 89.4111 455.112 85.6592 459.437 85.6592C462.16 85.6592 464.563 87.194 465.845 89.4111L464.403 90.2638C463.282 88.5584 461.52 87.3646 459.437 87.3646C456.073 87.3646 453.35 90.4343 453.35 94.0157C453.35 97.5971 456.073 100.667 459.437 100.667C461.52 100.667 463.282 99.4731 464.403 97.7676Z" fill="#23214B"/>
<path d="M482.184 94.8684H469.369C469.689 98.1087 472.252 100.667 475.456 100.667C477.378 100.667 478.98 99.8141 480.262 98.4498L481.543 99.3025C480.102 101.349 478.019 102.372 475.456 102.372C471.131 102.372 467.767 98.6203 467.767 94.0157C467.767 89.5816 470.81 85.6592 475.136 85.6592C479.301 85.6592 482.505 89.4111 482.184 94.8684ZM469.529 93.163H480.742C480.422 89.7522 478.179 87.3646 475.296 87.3646C472.092 87.3646 469.849 89.9227 469.529 93.163Z" fill="#23214B"/>
<path d="M495 97.5972C495 99.9848 493.398 102.372 489.874 102.372C486.99 102.372 485.068 100.667 484.587 98.7909L486.029 98.2793C486.35 99.4731 487.791 100.667 489.874 100.667C492.117 100.667 493.558 99.4731 493.558 97.5972C493.558 95.8918 492.437 95.3801 490.034 94.8685C487.791 94.3569 485.068 93.5042 485.068 90.4344C485.068 87.8763 486.99 85.8298 489.714 85.8298C491.956 85.8298 493.719 87.1941 494.359 89.4112L492.757 89.9228C492.277 88.3879 491.155 87.5352 489.714 87.5352C487.952 87.5352 486.67 88.729 486.67 90.4344C486.67 92.1398 488.112 92.822 490.354 93.3336C492.437 93.6747 495 94.3569 495 97.5972Z" fill="#23214B"/>
</svg>
